<svg viewBox="0 0 30 30" xmlns="http://www.w3.org/2000/svg"><g data-name="Layer 2"><path d="M15 2.5A12.5 12.5 0 1 0 27.5 15 12.514 12.514 0 0 0 15 2.5Zm-2.6 15.9a.973.973 0 0 1-.178.537l-.002.003a.976.976 0 0 1-.245.257c-.011.008-.016.02-.028.029l-1.943 1.356a2 2 0 0 1-3.145-1.64v-7.883a2 2 0 0 1 3.145-1.641l1.943 1.356c.012.008.017.02.028.03a.973.973 0 0 1 .245.257l.002.002a.973.973 0 0 1 .178.537Zm9.886-1.76-5.647 3.942a2 2 0 0 1-3.145-1.64v-7.883a2 2 0 0 1 3.145-1.641l5.646 3.941a2 2 0 0 1 0 3.28Z" fill="none"></path><path d="M15 0a15 15 0 1 0 15 15A15.017 15.017 0 0 0 15 0Zm0 27.5A12.5 12.5 0 1 1 27.5 15 12.514 12.514 0 0 1 15 27.5Z" fill="#ffffff" class="fill-000000"></path><path d="M22.285 13.36 16.64 9.417a2 2 0 0 0-3.145 1.64v7.883a2 2 0 0 0 3.145 1.641l5.646-3.941v-.001a2 2 0 0 0 0-3.28ZM12.22 11.06a.973.973 0 0 0-.245-.257c-.011-.008-.016-.02-.028-.029l-1.943-1.356a2 2 0 0 0-3.145 1.64v7.883a2 2 0 0 0 3.145 1.641l1.943-1.356c.012-.008.017-.02.028-.03a.976.976 0 0 0 .245-.256l.002-.003a.973.973 0 0 0 .178-.537v-6.8a.973.973 0 0 0-.178-.537Z" fill="#ffffff" class="fill-000000"></path></g></svg>