<svg width="50" height="50" viewBox="0 0 50 50" fill="none" xmlns="http://www.w3.org/2000/svg">
<g filter="url(#filter0_bd_772_5498)">
<path d="M25 5C36.0457 5 45 13.9543 45 25C45 36.0457 36.0457 45 25 45C13.9543 45 5 36.0457 5 25C5 13.9543 13.9543 5 25 5Z" stroke="url(#paint0_linear_772_5498)" stroke-width="2" shape-rendering="crispEdges"/>
</g>
<g filter="url(#filter1_d_772_5498)">
<path d="M31.1437 24.0528L22.5667 19.2256C21.4249 18.5844 20 19.3859 20 20.6729V30.3271C20 31.6141 21.4249 32.4156 22.5667 31.7744L31.1437 26.9472C32.2854 26.306 32.2854 24.6984 31.1437 24.0572V24.0528Z" fill="white"/>
</g>
<defs>
<filter id="filter0_bd_772_5498" x="-14" y="-14" width="78" height="78" filterUnits="userSpaceOnUse" color-interpolation-filters="sRGB">
<feFlood flood-opacity="0" result="BackgroundImageFix"/>
<feGaussianBlur in="BackgroundImageFix" stdDeviation="9"/>
<feComposite in2="SourceAlpha" operator="in" result="effect1_backgroundBlur_772_5498"/>
<feColorMatrix in="SourceAlpha" type="matrix" values="0 0 0 0 0 0 0 0 0 0 0 0 0 0 0 0 0 0 127 0" result="hardAlpha"/>
<feOffset/>
<feGaussianBlur stdDeviation="2"/>
<feComposite in2="hardAlpha" operator="out"/>
<feColorMatrix type="matrix" values="0 0 0 0 0.934722 0 0 0 0 0.934722 0 0 0 0 0.934722 0 0 0 0.66 0"/>
<feBlend mode="normal" in2="effect1_backgroundBlur_772_5498" result="effect2_dropShadow_772_5498"/>
<feBlend mode="normal" in="SourceGraphic" in2="effect2_dropShadow_772_5498" result="shape"/>
</filter>
<filter id="filter1_d_772_5498" x="11.1" y="10.1" width="29.8" height="30.8" filterUnits="userSpaceOnUse" color-interpolation-filters="sRGB">
<feFlood flood-opacity="0" result="BackgroundImageFix"/>
<feColorMatrix in="SourceAlpha" type="matrix" values="0 0 0 0 0 0 0 0 0 0 0 0 0 0 0 0 0 0 127 0" result="hardAlpha"/>
<feOffset/>
<feGaussianBlur stdDeviation="4.45"/>
<feComposite in2="hardAlpha" operator="out"/>
<feColorMatrix type="matrix" values="0 0 0 0 0.917647 0 0 0 0 0.929412 0 0 0 0 0.941176 0 0 0 1 0"/>
<feBlend mode="normal" in2="BackgroundImageFix" result="effect1_dropShadow_772_5498"/>
<feBlend mode="normal" in="SourceGraphic" in2="effect1_dropShadow_772_5498" result="shape"/>
</filter>
<linearGradient id="paint0_linear_772_5498" x1="7.30322" y1="43.0353" x2="44.8418" y2="7.92725" gradientUnits="userSpaceOnUse">
<stop stop-color="#D0D0D0"/>
<stop offset="1" stop-color="#EAEAEA"/>
</linearGradient>
</defs>
</svg>
