<svg width="537" height="48" viewBox="0 0 537 48" fill="none" xmlns="http://www.w3.org/2000/svg">
<path d="M25.015 24.12C28.655 24.5533 31.4933 25.7667 33.53 27.76C35.61 29.7533 36.65 32.245 36.65 35.235C36.65 38.615 35.3717 41.4317 32.815 43.685C30.2583 45.895 26.8783 47 22.675 47H0.25V1.5H20.725C24.9283 1.5 28.3083 2.64833 30.865 4.945C33.4217 7.24166 34.7 10.08 34.7 13.46C34.7 16.1467 33.855 18.4217 32.165 20.285C30.475 22.1483 28.0917 23.4267 25.015 24.12ZM19.62 10.925H10.975V19.7H19.62C21.1367 19.7 22.3283 19.2883 23.195 18.465C24.105 17.6417 24.56 16.58 24.56 15.28C24.56 13.98 24.105 12.94 23.195 12.16C22.3283 11.3367 21.1367 10.925 19.62 10.925ZM10.975 37.575H20.66C22.1767 37.575 23.3683 37.1633 24.235 36.34C25.1017 35.5167 25.535 34.455 25.535 33.155C25.535 31.855 25.1017 30.815 24.235 30.035C23.3683 29.2117 22.1767 28.8 20.66 28.8H10.975V37.575ZM96.4754 47H65.2754V1.5H96.4754V11.25H76.3254V19.375H95.8254V29.125H76.3254V37.25H96.4754V47ZM169.946 47H158.181L155.516 38.03H135.626L132.961 47H121.846L136.081 1.5H155.711L169.946 47ZM145.571 4.75L138.551 28.28H152.591L145.571 4.75ZM212.848 47H201.798V11.25H188.473V1.5H226.173V11.25H212.848V47ZM256.42 40.89C251.827 36.3833 249.53 30.8367 249.53 24.25C249.53 17.6633 251.827 12.1167 256.42 7.61C261.057 3.10333 266.777 0.849998 273.58 0.849998C278.65 0.849998 283.07 2.12833 286.84 4.685C290.61 7.24167 293.34 10.3617 295.03 14.045L284.76 17.945C283.763 15.9083 282.268 14.24 280.275 12.94C278.325 11.64 276.093 10.99 273.58 10.99C270.027 10.99 267.037 12.2683 264.61 14.825C262.183 17.3817 260.97 20.5233 260.97 24.25C260.97 27.9767 262.183 31.1183 264.61 33.675C267.037 36.2317 270.027 37.51 273.58 37.51C276.093 37.51 278.325 36.86 280.275 35.56C282.268 34.26 283.763 32.5917 284.76 30.555L295.03 34.455C293.34 38.1383 290.61 41.2583 286.84 43.815C283.07 46.3717 278.65 47.65 273.58 47.65C266.777 47.65 261.057 45.3967 256.42 40.89ZM364.578 47H352.813L350.148 38.03H330.258L327.593 47H316.478L330.713 1.5H350.343L364.578 47ZM340.203 4.75L333.183 28.28H347.223L340.203 4.75ZM409.508 47H390.593V1.5H409.508C416.224 1.5 421.793 3.68833 426.213 8.065C430.633 12.3983 432.843 17.7933 432.843 24.25C432.843 30.7067 430.633 36.1233 426.213 40.5C421.793 44.8333 416.224 47 409.508 47ZM401.643 11.25V37.25H408.533C412.389 37.25 415.488 36.0367 417.828 33.61C420.211 31.1833 421.403 28.0633 421.403 24.25C421.403 20.4367 420.211 17.3167 417.828 14.89C415.488 12.4633 412.389 11.25 408.533 11.25H401.643ZM492.023 47H460.823V1.5H492.023V11.25H471.873V19.375H491.373V29.125H471.873V37.25H492.023V47ZM520.384 3.97H518.044V1.5H525.454V3.97H523.114V10.015H520.384V3.97ZM536.829 1.5V10.015H534.749V1.955L533.579 10.015H529.614L528.379 1.955V10.015H526.299V1.5H530.394L531.564 9.365L532.734 1.5H536.829Z" fill="white"/>
</svg>
